# xmcd
#
# Track frame offsets:
# 150
# 13871
# 23539
# 45917
# 60106
# 79577
# 100633
# 133146
# 153010
# 167126
# 182608
# 195362
# 208917
# 223997
#
# Disc length: 3173 seconds
#
#
# Revision: 0
# Processed by: cddbd v1.5.2PL0 Copyright (c) Steve Scherf et al.
# Submitted via: FreeRIP 2.944 
#
DISCID=a90c630e
DTITLE=General Lee and The Cruisers - Bring it on home to me
DYEAR=2008
DGENRE=Rock and Roll
TTITLE0=Choo choo cha boogie
TTITLE1=Heartbreak Hotel
TTITLE2=Bring it on home to me
TTITLE3=Red Gumbo
TTITLE4=Nobody knows when you're down and out
TTITLE5=Right next door
TTITLE6=Old Love
TTITLE7=Smockin' gun
TTITLE8=Cherokee Boogie
TTITLE9=Blue Suede Shoes
TTITLE10=The Warden Blues
TTITLE11=See you later alligator
TTITLE12=Sweet home Chicago
TTITLE13=Walk out my door
EXTD=
EXTT0=
EXTT1=
EXTT2=
EXTT3=
EXTT4=
EXTT5=
EXTT6=
EXTT7=
EXTT8=
EXTT9=
EXTT10=
EXTT11=
EXTT12=
EXTT13=
PLAYORDER=
